<?xml version="1.0" encoding="UTF-8" standalone="no"?>
<!-- Created with Inkscape (http://www.inkscape.org/) -->

<svg
   version="1.1"
   id="svg2"
   width="2692.3811"
   height="2392.3811"
   viewBox="0 0 2692.3811 2392.3811"
   sodipodi:docname="logosvgwhite.svg"
   inkscape:version="1.1.2 (b8e25be833, 2022-02-05)"
   xmlns:inkscape="http://www.inkscape.org/namespaces/inkscape"
   xmlns:sodipodi="http://sodipodi.sourceforge.net/DTD/sodipodi-0.dtd"
   xmlns="http://www.w3.org/2000/svg"
   xmlns:svg="http://www.w3.org/2000/svg">
  <defs
     id="defs6" />
  <sodipodi:namedview
     id="namedview4"
     pagecolor="#ffffff"
     bordercolor="#666666"
     borderopacity="1.0"
     inkscape:pageshadow="2"
     inkscape:pageopacity="0.0"
     inkscape:pagecheckerboard="true"
     showgrid="false"
     inkscape:zoom="0.3005374"
     inkscape:cx="2294.2236"
     inkscape:cy="1196.1906"
     inkscape:window-width="1278"
     inkscape:window-height="1048"
     inkscape:window-x="-7"
     inkscape:window-y="0"
     inkscape:window-maximized="0"
     inkscape:current-layer="g8" />
  <g
     inkscape:groupmode="layer"
     inkscape:label="Image"
     id="g8">
    <path
       style="fill:#ffffff;stroke-width:0.952381"
       d="m 778.85381,2391.2292 c -123.52483,-0.6071 -162.37456,-1.429 -180.4762,-3.8181 -9.51318,-1.2555 -19.46841,-3.745 -34.76191,-8.6929 -87.57404,-28.3322 -156.79034,-83.943 -202.40809,-162.6215 -17.60504,-30.364 -28.5794,-58.038 -33.25444,-83.8575 -3.70427,-20.4581 -8.64282,-59.0933 -12.35646,-96.6667 -2.12206,-21.4703 -3.03573,-34.0148 -5.13313,-70.4762 l -0.65741,-11.4286 -9.52381,-0.6627 c -5.2381,-0.3645 -27.30953,-1.5483 -49.04762,-2.6308 -83.0741,-4.1366 -94.74325,-5.4087 -114.90747,-12.5258 -47.262724,-16.6817 -91.67332,-54.848 -113.997243,-97.9689 -11.534335,-22.2798 -17.9158971,-39.8837 -20.1986311,-55.7192 -2.08839905,-14.4874 -2.78551005,-43.4443 -1.44484205,-60.0164 1.31720905,-16.2821 2.63903505,-23.281 6.56518605,-34.7619 19.7973061,-57.8913 54.7612191,-98.1312 108.0049901,-124.3026 31.37693,-15.4229 44.63293,-17.5802 131.69229,-21.4315 42.88216,-1.897 52.22805,-3.1136 58.42969,-7.606 l 3.76425,-2.7268 0.55228,-8.8713 c 0.30376,-4.8792 1.0054,-24.2999 1.55922,-43.157 1.21018,-41.2064 3.51186,-105.8219 4.36783,-122.6191 l 0.61879,-12.1429 h 63.68731 63.68731 l 0.0235,233.5715 c 0.0242,239.7976 1.07563,408.6983 2.80583,450.7143 1.74609,42.4019 3.63133,56.3416 10.32893,76.3735 16.50819,49.3745 49.89114,92.6547 93.50836,121.2312 17.80873,11.6677 45.89521,23.8173 61.42858,26.5727 27.65615,4.9059 150.831,6.441 587.1429,7.3176 307.7295,0.6183 721.4655,-0.6528 795.2381,-2.4431 41.4748,-1.0065 68.9725,-2.308 81.9048,-3.8767 15.5227,-1.8831 41.5935,-12.2563 60.9143,-24.237 45.9805,-28.5122 80.919,-72.7761 98.165,-124.3663 6.5877,-19.7067 8.6149,-36.5913 10.4509,-87.0481 1.7614,-48.4058 2.8133,-213.8607 2.8322,-445.4762 l 0.019,-228.3334 53.0952,0.032 c 49.6503,0.03 71.9384,0.8047 73.6839,2.5613 1.4259,1.4348 3.7079,58.7198 5.7015,143.1209 0.6249,26.4524 1.3121,48.2994 1.5273,48.5488 0.2151,0.2494 8.83,0.7735 19.144,1.1646 134.5049,5.1002 139.4115,5.7676 176.8481,24.0568 51.7456,25.2798 87.1265,65.126 104.2165,117.3694 6.79,20.7561 9.5651,39.7385 9.58,65.5271 0.013,24.0636 -2.4295,40.2508 -9.128,60.4762 -18.3013,55.2579 -62.5797,101.9794 -118.57,125.1125 -21.8862,9.0425 -36.6047,11.2935 -94.1938,14.406 -60.5541,3.2728 -87.6146,5.1506 -87.6268,6.0807 0,0.3252 -0.4112,4.2341 -0.9042,8.6865 -1.068,9.6459 -2.9772,36.4805 -6.2336,87.6191 -2.6262,41.2396 -3.6944,53.3756 -5.8081,65.9868 -3.2619,19.4605 -13.601,48.8109 -26.5756,75.4418 -37.7176,77.4168 -95.5347,133.5385 -175.7088,170.5565 -18.2311,8.4177 -27.0705,11.9224 -54.1375,21.4649 l -21.2803,7.5024 -591.5768,-0.1855 c -325.3674,-0.1024 -650.0769,-0.4735 -721.57691,-0.8248 z M 310.28236,1747.3676 v -72.4904 l -48.33334,0.5021 c -51.01013,0.53 -63.46181,1.3911 -79.56481,5.5025 -22.44214,5.73 -39.50774,21.4515 -46.96077,43.2621 -2.14529,6.278 -2.67129,9.7145 -2.98841,19.5238 -0.33528,10.3714 -0.0805,13.0851 1.97854,21.0677 4.06286,15.7516 10.02994,25.826 20.39356,34.4307 6.9355,5.7585 20.46971,12.4991 29.93572,14.9092 11.81854,3.009 53.80048,5.3626 100.53951,5.6364 l 25,0.1465 z m 2146.85264,71.5091 c 46.7658,-2.3737 58.4253,-4.8935 75.1663,-16.2445 12.0016,-8.1375 22.5303,-24.0193 26.1467,-39.4407 4.7926,-20.437 -0.6794,-44.9322 -13.6111,-60.9293 -18.4464,-22.8189 -38.5095,-27.1186 -126.6973,-27.1521 l -36.4286,-0.014 v 72.381 72.3809 h 28.043 c 15.4237,0 36.7451,-0.4417 47.381,-0.9815 z m -1397.7888,410.9745 c -31.4089,-7.0004 -51.0262,-14.6192 -70.93676,-27.5497 -24.68952,-16.0343 -42.00048,-35.4463 -55.68472,-62.4433 -12.09938,-23.8703 -21.30283,-53.502 -23.36854,-75.2381 -1.36373,-14.3496 -2.68735,-210.4619 -3.25733,-482.619 l -0.49317,-235.4763 h 67.42081 67.42071 l 0.6319,48.7281 c 0.3474,26.8004 0.651,137.2647 0.6743,245.4763 0.048,217.8363 1.2471,394.7622 2.7904,411.387 0.7465,8.0421 1.7232,12.6226 3.7949,17.7963 3.92,9.7899 9.7876,18.6688 15.9907,24.1975 7.5709,6.7478 20.8813,13.2707 29.2863,14.352 8.8382,1.1371 27.5514,1.1298 37.619,-0.014 14.72,-1.6733 28.3108,-10.2964 39.0413,-24.7711 7.7759,-10.4891 9.4085,-16.3958 11.5851,-41.9133 0.7922,-9.2873 1.1989,-107.5913 1.465,-354.0477 l 0.3683,-341.1905 h 39.7481 39.7481 l 6.6411,6.6967 c 11.7826,11.881 24.6769,19.2968 41.312,23.7592 l 4.1946,1.1253 -0.6583,307.7809 c -0.3621,169.2794 -1.077,321.4951 -1.5886,338.257 -1.4735,48.2702 -3.0516,60.304 -10.9215,83.2799 -20.0608,58.5672 -54.9948,95.3344 -108.6159,114.3161 -23.2299,8.2233 -35.2528,9.6725 -83.7478,10.0944 -39.5873,0.3445 -40.1079,0.3241 -50.46,-1.9831 z m -461.98986,-9.5166 c -25.98197,-7.0085 -66.32912,-39.1657 -89.16397,-71.0649 -6.57154,-9.1801 -15.85114,-27.2261 -23.05264,-44.8304 l -5.33355,-13.0379 v -372.4383 -372.4383 h 181.42858 181.42858 v 61.4247 61.4248 l -113.57144,0.2419 -113.57143,0.242 -0.24168,123.0952 -0.24167,123.0953 h 88.58196 88.58196 l -0.24505,61.6667 -0.24503,61.6666 -88.33334,0.2431 -88.33334,0.243 v 190.9475 190.9474 l -6.42857,-0.063 c -3.53572,-0.034 -8.60243,-0.649 -11.25937,-1.3657 z m 818.64036,-422.8573 v -424.2858 h 22.1428 c 33.4209,0 55,-0.9796 55,-2.4856 0,-0.68 -1.9286,-6.2263 -4.2857,-12.3251 -2.3571,-6.0988 -4.2857,-11.2607 -4.2857,-11.4709 0,-0.2102 15,-0.3821 33.3333,-0.3821 h 33.3334 v 375.7143 375.7143 h 113.8095 113.8095 v 61.9048 61.9048 h -181.4286 -181.4285 v -424.2858 z m 431.1111,423.6507 c -0.3492,-0.3491 -0.6349,-197.2777 -0.6349,-437.619 v -436.9842 h 68.0952 68.0953 v 375.5623 375.5622 l 22.1428,0.6261 c 12.1786,0.3444 54.5,0.6282 94.0476,0.6307 39.5477,0 80.5278,0.2841 91.0671,0.6257 l 19.1623,0.6208 -5.4689,12.4718 c -10.6627,24.3166 -23.4648,43.5925 -41.2757,62.1481 -16.9474,17.656 -32.4234,29.2401 -54.9921,41.1629 l -11.0311,5.8276 h -124.2863 c -68.3576,0 -124.5721,-0.2857 -124.9213,-0.635 z m -528.7302,-871.767 c -11.101,-2.2282 -22.9223,-8.9085 -30.301,-17.1233 -5.5528,-6.182 -12.3039,-19.7005 -14.8913,-29.8186 -3.3447,-13.0792 -4.0283,-25.6225 -3.6951,-67.799 l 0.316,-40 7.0601,-13.6412 c 8.042,-15.5384 12.2768,-20.7491 23.0116,-28.3141 8.0234,-5.6543 10.4045,-7.7061 10.4045,-8.9659 0,-0.4318 -2.0561,-2.1044 -4.5692,-3.717 -6.0432,-3.878 -19.0374,-17.2964 -23.4566,-24.2223 -6.2787,-9.8406 -8.2477,-16.6244 -9.398,-32.3804 -1.2253,-16.7802 0.2981,-50.6035 2.7537,-61.1401 3.3315,-14.2955 12.7675,-29.02839 25.2978,-39.49839 17.5801,-14.6896 29.1293,-16.7929 102.4675,-18.661 l 25,-0.6369 v 26.6455 26.64539 l -34.5238,0.5517 c -36.8152,0.5884 -43.709,1.3395 -51.2643,5.5858 -4.5697,2.5684 -8.923,8.8193 -11.1538,16.0159 -1.3518,4.3608 -1.614,8.9902 -1.5386,27.1615 0.101,24.2978 1.3992,33.8303 5.5788,40.9622 2.7629,4.7147 9.3208,9.3862 16.192,11.5346 5.5229,1.7268 26.2307,2.8419 34.2252,1.8431 l 5.3416,-0.6674 v -7.8761 c 0,-4.3319 0.2808,-13.7296 0.6239,-20.8839 l 0.6239,-13.0077 h 27.4535 27.4535 l 0.2559,21.6667 0.256,21.6666 8.3334,0.2752 8.3333,0.2752 v 26.1534 26.1534 h -8.6872 -8.687 l 0.625,49.7619 c 0.8357,66.5258 2.2951,112.0309 3.7761,117.7407 l 1.189,4.5836 -23.3936,-0.4296 c -12.8666,-0.2363 -25.7243,-0.7057 -28.5728,-1.0431 l -5.1789,-0.6135 -2.1197,-11.6095 c -2.578,-14.1201 -3.0043,-15.5334 -4.6865,-15.5334 -0.727,0 -3.8586,3.3326 -6.9592,7.4058 -10.5227,13.8233 -20.5359,21.4555 -32.1005,24.4677 -6.0199,1.568 -24.5748,1.8555 -31.3952,0.4865 z m 53.3333,-54.0429 c 5.4152,-2.7994 11.4064,-9.3414 14.238,-15.5468 4.4138,-9.6728 5.3985,-20.3799 5.9698,-64.9131 l 0.5221,-40.7143 -6.5554,0.031 c -15.4101,0.073 -35.3465,1.7406 -39.0001,3.2615 -7.7977,3.246 -14.9559,12.5686 -17.4413,22.7151 -2.7117,11.0701 -3.7037,42.3676 -1.998,63.0398 2.3167,28.0797 8.879,35.1565 31.884,34.3839 6.3814,-0.2144 9.5447,-0.791 12.3809,-2.2573 z M 879.33001,985.00011 c -31.26676,-3.1845 -54.59062,-12.8913 -71.71363,-29.8453 -15.60523,-15.4512 -25.99613,-37.3094 -30.76412,-64.71514 -2.94832,-16.9465 -3.62666,-64.24296 -3.67244,-256.05775 l -0.0403,-168.80954 h 39.52381 39.52381 l 0.0491,3.09524 c 0.027,1.70238 0.43925,90.52382 0.91598,197.38097 0.5014,112.38615 1.2772,200.25768 1.84039,208.45268 0.78983,11.493 1.39909,15.0963 3.22794,19.0911 6.14756,13.42804 17.69702,19.56724 36.82366,19.57374 17.50007,0.01 28.77802,-6.2865 35.68053,-19.90804 5.16675,-10.196 5.35399,-17.7354 6.10387,-245.78091 l 0.59659,-181.42859 37.46067,-0.24921 37.46053,-0.24923 -0.4538,200.72543 c -0.3076,136.04961 -0.7965,204.71341 -1.5173,213.10231 -2.5658,29.85934 -12.29438,54.29234 -28.81515,72.36864 -13.94,15.2527 -37.42201,27.0075 -62.70638,31.39 -8.87499,1.5384 -32.00756,2.6291 -39.52381,1.8636 z m 595.26659,-1.3308 c -2.6034,-0.4709 -7.8029,-1.539 -11.5545,-2.3736 l -6.8211,-1.5175 -0.8264,-21.1505 -0.8265,-21.1505 -27.7149,-0.2523 -27.7149,-0.2522 -4.8172,-10.2239 c -8.1542,-17.3066 -10.6148,-26.5911 -11.6304,-43.88374 -1.3403,-22.8235 -1.9847,-195.13599 -0.98,-262.05458 1.1527,-76.76605 1.6379,-80.92086 11.86,-101.57159 6.9792,-14.09959 12.5715,-21.85777 22.6264,-31.38975 25.6734,-24.33799 66.989,-33.89565 112.6567,-26.06119 17.0127,2.91857 27.3994,7.06414 42.188,16.83803 25.3682,16.76602 39.6542,42.46195 45.4268,81.70831 1.5365,10.44651 3.2543,41.71841 3.3088,60.23809 l 0.029,9.76191 h -37.6191 -37.619 v -19.8617 c 0,-43.64955 -3.7313,-61.65839 -14.7925,-71.39486 -6.9431,-6.11175 -11.7158,-7.31488 -29.0168,-7.31488 -14.2523,0 -14.9501,0.0924 -20.2129,2.67628 -6.9663,3.42026 -11.1878,8.36288 -17.0183,19.92547 l -4.6736,9.26841 v 158.85394 158.85391 l 4.9178,9.3056 c 3.4946,6.61244 6.3855,10.64694 9.9891,13.94034 7.3935,6.7573 12.1508,8.1356 27.9502,8.0976 11.2641,-0.027 13.5643,-0.3117 18.5644,-2.2977 10.2456,-4.0694 19.1002,-14.92754 21.4408,-26.29194 1.0795,-5.2414 2.7388,-64.45402 2.8076,-100.18903 l 0.044,-23.09524 h -20.4762 -20.4762 v -34.76191 -34.76191 h 58.242 58.2419 l -0.6817,76.90477 c -0.8009,90.34312 -1.5213,111.00452 -4.3588,125.00002 -10.4226,51.40864 -39.4262,81.22284 -86.6815,89.10394 -10.5101,1.7529 -46.589,2.6746 -53.781,1.3739 z M 303.8924,861.04857 c 0.43486,-126.68463 0.60008,-132.31971 4.58353,-156.3281 5.80387,-34.98015 28.42449,-96.56211 50.49249,-137.45983 67.80072,-125.65233 185.44442,-219.08615 323.52431,-256.94628 47.0866,-12.91068 77.94743,-15.1273 258.26585,-18.55032 81.65782,-1.55012 139.84172,-3.12436 140.95732,-3.81378 0.9959,-0.61547 1.6647,-6.726 3.3358,-30.47313 2.144,-30.4676 3.9393,-43.71582 8.5183,-62.85714 10.4585,-43.72022 30.6206,-79.38898 64.8052,-114.647045 22.8938,-23.61269 45.6173,-40.29753 73.3357,-53.84697 89.3967,-43.699379 194.3192,-31.953599 272.8572,30.54558 10.9676,8.72783 31.1298,29.08776 40.8808,41.281757 22.5728,28.228058 39.8198,61.099868 47.6795,90.874728 4.7103,17.84386 6.5491,30.83411 9.5152,67.22052 1.0461,12.83334 2.158,25.34278 2.4708,27.79878 l 0.5687,4.46544 4.9187,0.52753 c 2.7052,0.29014 40.9187,1.17823 84.9187,1.97352 158.0569,2.85688 193.5335,3.89125 230.4762,6.7199 33.4534,2.56148 57.0168,6.57064 83.5504,14.21558 92.3833,26.61774 177.4281,76.27411 246.3166,143.8205 40.8243,40.0289 66.5044,74.24638 88.1353,117.43607 20.25,40.43255 32.699,80.28198 35.7608,114.47128 3.9353,43.94103 6.6712,144.00307 6.699,245.00005 l 0.014,51.1905 h -71.2714 -71.2715 l -0.6328,-93.57154 c -0.348,-51.46424 -0.633,-110.99306 -0.6333,-132.28622 l -5e-4,-38.71484 -6.0512,-16.99944 c -15.6134,-43.86311 -37.4867,-87.09071 -57.6651,-113.96231 -23.0202,-30.65598 -53.7154,-61.46146 -83.6432,-83.94391 -42.2148,-31.7127 -110.7261,-60.715 -154.0691,-65.22081 -29.6857,-3.08603 -99.7169,-4.61415 -268.5715,-5.86042 -217.7563,-1.60719 -787.6393,0.32346 -869.99997,2.94739 -45.94768,1.46385 -68.21063,3.47249 -84.81868,7.65263 -30.36689,7.64316 -84.53812,32.74805 -115.65752,53.59983 -31.60908,21.17989 -78.83488,68.17692 -99.31342,98.83233 -11.94139,17.8757 -29.58761,51.26378 -40.17158,76.00792 -3.11568,7.28409 -8.47044,21.47438 -11.89946,31.53397 l -6.23479,18.29018 v 47.83293 c 0,26.30813 -0.28491,85.18957 -0.63312,130.84761 l -0.63311,83.0147 H 373.38668 303.47151 Z M 1467.4252,289.93298 c 0,-7.05305 -3.1194,-39.03869 -4.7207,-48.40566 -5.003,-29.26438 -16.9594,-52.16937 -37.5464,-71.92852 -22.1008,-21.21192 -45.3805,-29.74072 -81.1784,-29.74072 -16.3144,0 -30.623,1.5082 -37.8846,3.99324 -7.9108,2.70721 -23.086,10.30007 -30.3296,15.17536 -3.2776,2.20601 -9.7686,7.68839 -14.4243,12.18307 -21.7494,20.99707 -31.8111,41.89441 -37.1799,77.21976 -1.2604,8.29294 -4.3377,38.43409 -4.3512,42.61905 0,0.9463 25.3908,1.19048 123.8056,1.19048 h 123.8095 z m -394.2857,432.1514 V 465.263 l 48.7331,0.60216 c 26.8033,0.33119 49.0523,0.93651 49.4423,1.34517 0.5717,0.59905 56.7418,219.85075 73.5984,287.28029 4.0094,16.03874 5.452,19.88769 6.9081,18.4316 1.4583,-1.45827 2.1712,-58.97203 2.2192,-179.02823 l 0.052,-128.34507 35,0.24983 35,0.24982 0.2524,174.76192 c 0.2481,171.83006 -0.7134,291.03932 -2.3926,296.66672 -0.469,1.5714 -1.8935,3.3653 -3.1657,3.9865 -1.2722,0.6211 -6.8132,3.2687 -12.3132,5.8836 -12.5392,5.9615 -21.2136,11.7905 -32.3587,21.7441 -7.6753,6.8548 -9.3916,7.9402 -14.1,8.9177 -6.8404,1.42 -15.4188,0.521 -17.3812,-1.8217 -0.8025,-0.9579 -8.8926,-30.631 -17.9779,-65.9402 -43.3625,-168.52183 -68.9886,-266.81291 -75.9579,-291.34148 l -3.653,-12.85715 -0.6145,10 c -0.338,5.5 -0.9394,89.39287 -1.3363,186.42859 l -0.7216,176.42864 h -34.6162 -34.6162 z m 600,0.15469 V 465.57238 l 33.5715,0.0424 c 50.977,0.0644 103.341,1.51809 115.9523,3.21901 13.2605,1.78847 22.8255,4.35763 31.9932,8.59339 20.3465,9.40063 35.3046,24.32297 44.6253,44.51868 7.5869,16.43863 9.4481,32.23175 9.5187,80.76938 0.058,39.83318 -0.4457,45.29414 -5.6656,61.42858 -7.4715,23.09346 -18.618,36.82044 -39.0641,48.10691 -3.917,2.1622 -7.1197,4.22268 -7.1174,4.57885 0,0.35616 4.181,2.75202 9.2858,5.32412 7.7903,3.92532 10.682,6.08129 18.0007,13.42149 7.6294,7.65179 9.3178,9.98396 13.5072,18.65678 11.0911,22.96104 14.3871,54.68709 14.4362,138.9595 0.024,41.63584 1.1527,63.78454 3.822,75.02424 1.0429,4.3908 1.8961,8.5924 1.8961,9.3367 0,1.1476 -5.9272,1.3534 -38.97,1.3534 h -38.9699 l -1.9067,-5.9524 c -1.0488,-3.2738 -2.151,-7.881 -2.4495,-10.2381 -1.1047,-8.7243 -2.4552,-51.6871 -3.4877,-110.95244 l -1.0619,-60.95238 -5.2333,-8.90059 c -8.627,-14.67233 -13.2375,-18.69613 -24.1114,-21.04274 -4.1765,-0.9013 -34.0416,-2.7376 -46.9048,-2.884 l -2.6191,-0.0298 v 110.47621 110.47624 h -39.5238 -39.5238 z m 125.1985,-38.12495 c 18.417,-4.79699 29.8511,-18.20495 32.0736,-37.61038 1.4796,-12.91852 0.4177,-69.61644 -1.4763,-78.82182 -2.5334,-12.31349 -7.7992,-19.4436 -18.7688,-25.41402 -4.6245,-2.51695 -5.8928,-2.7203 -21.9949,-3.52634 -9.3981,-0.47046 -21.2321,-0.73312 -26.2978,-0.5837 l -9.2105,0.27167 -0.244,73.57143 -0.2439,73.57144 h 20.2819 c 15.1396,0 21.7016,-0.36974 25.8807,-1.45828 z m 232.5794,294.15669 c -0.3493,-0.3491 -0.635,-50.4813 -0.635,-111.40474 v -110.7699 l -47.756,-144.8075 c -26.2658,-79.64412 -47.4944,-145.06909 -47.1747,-145.3888 1.0803,-1.08024 22.0018,1.75293 32.5497,4.40784 19.1669,4.82427 52.1877,19.07321 56.741,24.48455 2.6416,3.1394 1.8416,0.56904 27.0694,86.97061 19.4248,66.52715 21.3261,72.57168 22.6886,72.12809 1.8507,-0.60254 4.7738,-9.11036 14.8017,-43.08047 10.1273,-34.30673 16.5726,-54.49901 18.6774,-58.51324 l 1.2789,-2.43915 12.5506,12.38096 c 10.8266,10.68023 36.1297,38.99013 38.3765,42.93669 0.4693,0.82442 -8.8185,30.50382 -24.5239,78.36646 l -25.2792,77.03947 v 109.16199 109.16214 h -39.365 c -21.6509,0 -39.6509,-0.2857 -40,-0.635 z M 470.86166,849.14387 l 0.64696,-126.9048 3.28544,-9.52381 c 15.20051,-44.06314 41.14402,-92.77667 65.67125,-123.30936 l 6.48373,-8.07126 0.24715,46.40459 0.24716,46.4046 h 43.79529 43.79529 l 0.24327,-83.87349 0.24327,-83.8735 25.71429,-12.15474 c 26.89672,-12.71365 46.74895,-21.44981 51.19048,-22.52683 l 2.61904,-0.63509 v 252.48421 252.48422 h -40 -40 V 861.28667 746.52478 h -43.80953 -43.80952 v 114.76189 114.76194 h -38.60527 -38.60527 z"
       id="path845" />
  </g>
</svg>
